<svg xmlns="http://www.w3.org/2000/svg" viewBox="0 0 120 120">
  <!-- Background: deep warm saffron -->
  <circle cx="60" cy="60" r="60" fill="#fff7ed"/>
  <!-- Saffron stamen base blob -->
  <ellipse cx="60" cy="74" rx="38" ry="10" fill="#ea580c" opacity="0.2"/>
  <!-- Individual saffron threads — thin, trumpet-shaped at top -->
  <!-- Thread 1 -->
  <path d="M50 82 Q48 60 46 40 Q44 30 50 25 Q52 22 54 25 Q56 30 52 40 Q50 60 52 82 Z"
        fill="#ea580c" opacity="0.85"/>
  <path d="M50 25 Q52 18 55 22 Q54 28 52 32" fill="#f97316" opacity="0.9"/>
  <!-- Thread 2 -->
  <path d="M60 82 Q62 60 64 40 Q66 28 62 22 Q60 19 58 22 Q56 28 58 40 Q60 60 60 82 Z"
        fill="#dc2626" opacity="0.8"/>
  <path d="M62 22 Q60 16 57 20 Q58 26 60 30" fill="#ef4444" opacity="0.9"/>
  <!-- Thread 3 -->
  <path d="M72 80 Q70 60 68 42 Q66 32 70 27 Q72 24 75 27 Q77 32 74 42 Q72 60 72 80 Z"
        fill="#ea580c" opacity="0.85"/>
  <path d="M70 27 Q73 20 76 24 Q75 30 73 34" fill="#f97316" opacity="0.9"/>
  <!-- Thread 4 (thinner) -->
  <path d="M42 78 Q44 60 46 44 Q47 36 44 32 Q42 29 41 32 Q40 36 42 44 Q43 60 42 78 Z"
        fill="#b91c1c" opacity="0.7"/>
  <!-- Thread 5 -->
  <path d="M80 76 Q78 58 76 44 Q75 36 78 32 Q80 29 82 32 Q83 36 81 44 Q80 58 80 76 Z"
        fill="#c2410c" opacity="0.75"/>
  <!-- Stigma tips glowing orange-red -->
  <ellipse cx="52" cy="24" rx="4" ry="3" fill="#f97316" opacity="0.9"/>
  <ellipse cx="60" cy="20" rx="4" ry="3" fill="#ef4444" opacity="0.9"/>
  <ellipse cx="72" cy="26" rx="4" ry="3" fill="#f97316" opacity="0.9"/>
  <!-- Pollen / dust effect -->
  <circle cx="55" cy="35" r="1" fill="#fbbf24" opacity="0.6"/>
  <circle cx="65" cy="32" r="1.2" fill="#fbbf24" opacity="0.5"/>
  <circle cx="68" cy="45" r="0.8" fill="#fbbf24" opacity="0.5"/>
</svg>
